HIERARCHY
ROOT hip
{
	OFFSET 0.000000 0.000000 0.000000 
	CHANNELS 6 Xposition Yposition Zposition Xrotation Zrotation Yrotation
	JOINT abdomen
	{
		OFFSET 0.000000 3.402643 0.000000 
		CHANNELS 3 Xrotation Zrotation Yrotation
		JOINT chest
		{
			OFFSET 0.000000 8.438565 -0.680529 
			CHANNELS 3 Xrotation Zrotation Yrotation
			JOINT neck
			{
				OFFSET 0.000000 10.207942 -0.272212 
				CHANNELS 3 Xrotation Zrotation Yrotation
				JOINT head
				{
					OFFSET 0.000000 3.130431 0.000000 
					CHANNELS 3 Xrotation Zrotation Yrotation
					End Site
					{
						OFFSET 0.000000 3.130435 0.000000 
					}
				}
			}
			JOINT lCollar
			{
				OFFSET 3.470700 6.669187 -0.816635 
				CHANNELS 3 Yrotation Zrotation Xrotation
				JOINT lShldr
				{
					OFFSET 3.198488 0.000000 0.000000 
					CHANNELS 3 Zrotation Yrotation Xrotation
					JOINT lForeArm
					{
						OFFSET 10.139888 0.000000 0.000000 
						CHANNELS 3 Yrotation Zrotation Xrotation
						JOINT lHand
						{
							OFFSET 8.370511 0.000000 0.000000 
							CHANNELS 3 Zrotation Yrotation Xrotation
							End Site
							{
								OFFSET 4.083176 0.000000 0.000000 
							}
						}
					}
				}
			}
			JOINT rCollar
			{
				OFFSET -3.470700 6.669187 -0.816635 
				CHANNELS 3 Yrotation Zrotation Xrotation
				JOINT rShldr
				{
					OFFSET -3.198488 0.000000 0.000000 
					CHANNELS 3 Zrotation Yrotation Xrotation
					JOINT rForeArm
					{
						OFFSET -10.139888 0.000000 0.000000 
						CHANNELS 3 Yrotation Zrotation Xrotation
						JOINT rHand
						{
							OFFSET -8.370511 0.000000 0.000000 
							CHANNELS 3 Zrotation Yrotation Xrotation
							End Site
							{
								OFFSET -4.083176 0.000000 0.000000 
							}
						}
					}
				}
			}
		}
	}
	JOINT lThigh
	{
		OFFSET 5.308129 -1.633274 1.361059 
		CHANNELS 3 Xrotation Zrotation Yrotation
		JOINT lShin
		{
			OFFSET -2.041588 -20.007561 0.000000 
			CHANNELS 3 Xrotation Zrotation Yrotation
			JOINT lFoot
			{
				OFFSET 0.000000 -19.190928 -1.224953 
				CHANNELS 3 Xrotation Yrotation Zrotation
				End Site
				{
					OFFSET 0.000000 -2.449906 4.627600 
				}
			}
		}
	}
	JOINT rThigh
	{
		OFFSET -5.308129 -1.633274 1.361059 
		CHANNELS 3 Xrotation Zrotation Yrotation
		JOINT rShin
		{
			OFFSET 2.041588 -20.007561 0.000000 
			CHANNELS 3 Xrotation Zrotation Yrotation
			JOINT rFoot
			{
				OFFSET 0.000000 -19.190928 -1.224953 
				CHANNELS 3 Xrotation Yrotation Zrotation
				End Site
				{
					OFFSET 0.000000 -2.449906 4.627600 
				}
			}
		}
	}
}
MOTION
Frames: 18
Frame Time: 0.033333
28.476595 42.388538 34.586475 -7.158913 -8.488974 -50.949619 -23.081680 -3.434572 0.648769 38.068836 4.173844 -2.940786 7.054431 -12.806325 26.390110 -13.081628 5.453414 23.391899 -5.688442 -12.921723 11.454733 -58.433704 -28.158712 30.581772 -62.232403 0.262552 -21.072035 18.719904 -43.711739 -7.484620 19.016064 8.020471 22.853004 70.974602 52.936237 57.744453 21.813519 0.289886 -42.297012 -32.823341 53.768002 -16.424866 -20.866793 21.110321 7.639053 21.608608 2.098797 4.016140 13.445013 -1.306965 -14.752212 -12.770882 -13.268547 -3.041759 56.780430 8.588734 -25.351847 -26.258402 -3.897986 12.791641 
28.410402 42.450378 34.831352 -7.033128 -8.084061 -50.715313 -23.081680 -3.434572 0.648769 38.147511 4.244069 -2.445409 6.425921 -12.634060 26.098129 -13.244330 5.004849 23.146837 -5.778780 -13.808167 11.677935 -57.357567 -27.272171 30.310202 -62.864254 -0.041833 -23.279705 16.358982 -43.166740 -6.377384 18.313042 8.146785 22.337334 71.216133 52.120270 59.279610 22.378494 0.527363 -42.636948 -30.885374 52.688557 -15.025849 -21.532991 20.956739 7.450253 22.662727 1.635878 3.899368 12.567424 -1.172070 -14.418770 -12.485356 -13.704875 -3.604071 56.422001 8.180971 -25.044413 -26.242395 -4.034358 13.203902 
28.349213 42.504486 35.066628 -7.057038 -7.754038 -50.616211 -23.081680 -3.434572 0.648769 38.347401 4.119874 -1.900378 5.223675 -12.024097 25.877653 -11.701427 4.363720 23.015976 -5.581972 -14.166935 11.702971 -57.112099 -27.242167 29.877258 -63.201694 0.031182 -24.095207 15.066999 -41.668404 -5.619572 18.064493 7.871017 22.174221 72.226089 52.369568 61.110332 22.005203 0.604958 -44.213631 -29.840950 52.313652 -14.371172 -21.822344 20.610683 7.664003 23.450903 1.577101 3.673299 11.815347 -1.061185 -14.231409 -12.148302 -14.071967 -4.107822 56.111599 7.577096 -24.818850 -26.191048 -4.149179 13.664888 
28.311214 42.573242 35.247913 -6.982367 -7.406221 -50.493279 -23.081680 -3.434572 0.648769 38.448772 3.934388 -1.578819 5.154700 -11.619605 25.619799 -11.367098 4.092628 22.893944 -5.351112 -14.122368 11.395241 -57.269920 -27.775013 29.911844 -63.032894 0.073329 -24.935081 14.941033 -40.564133 -5.426330 17.888105 8.215991 22.151716 71.563690 52.777988 61.123398 22.541159 0.336710 -44.889091 -28.583128 51.205101 -13.383311 -22.065475 20.258127 7.691107 23.796970 1.512707 3.651846 11.355505 -0.999032 -14.059115 -11.932414 -14.304758 -4.542186 55.700058 7.039029 -24.712465 -26.045816 -4.247943 14.066327 
28.268089 42.634678 35.429897 -6.859167 -7.078402 -50.352390 -23.081680 -3.434572 0.648769 38.447479 3.855224 -1.168024 5.356439 -11.419513 25.500521 -11.434055 3.751279 22.921711 -5.203873 -14.299717 11.051476 -57.271854 -28.629652 29.609577 -62.623745 0.262238 -25.109484 14.574055 -39.504013 -5.149489 17.554186 8.543902 21.693129 71.339081 53.155518 61.701122 22.666981 0.074854 -45.329021 -28.569490 50.373898 -13.145336 -22.439808 19.939621 7.428291 24.279371 1.430645 3.837324 10.855836 -0.933862 -13.947525 -11.715495 -14.643500 -4.884966 55.299492 6.843485 -24.532034 -25.962511 -4.292665 14.321458 
28.230740 42.687973 35.606300 -6.766410 -6.788769 -50.174042 -23.081680 -3.434572 0.648769 38.479622 3.760454 -0.925419 5.331874 -11.358272 25.235651 -11.883713 3.642064 22.685516 -5.080379 -13.956321 10.694966 -57.826683 -29.482714 29.621420 -62.553562 0.395298 -25.338352 14.412801 -38.710598 -4.987979 17.187391 8.949695 21.160988 70.942108 53.641087 61.382000 22.711140 -0.179205 -45.504620 -27.465195 49.944309 -12.480689 -22.802650 19.638580 7.156168 24.788980 1.332802 3.959523 10.342381 -0.854618 -13.811588 -11.412318 -14.935471 -5.580718 54.921215 6.366778 -24.207996 -25.895603 -4.364800 14.604949 
28.212879 42.745743 35.753452 -6.595958 -6.548545 -50.104317 -23.081680 -3.434572 0.648769 38.521828 3.758837 -0.790367 5.347083 -11.518527 25.011559 -12.403022 3.765944 22.407003 -5.119008 -13.924301 10.685832 -57.752522 -30.482285 28.831202 -62.552513 0.635451 -24.742241 14.468011 -37.854126 -4.903258 17.124744 9.187611 20.921787 70.984444 54.502090 61.395096 22.007002 -0.483744 -45.397663 -27.917280 50.070740 -12.729236 -23.095049 19.345034 7.116550 25.085438 1.469367 3.988887 9.987694 -0.809357 -13.776900 -11.246529 -15.179861 -5.927115 54.506607 6.207613 -23.974958 -25.782198 -4.374464 14.756381 
28.195715 42.807175 35.891941 -6.337129 -6.289769 -50.182804 -23.081680 -3.434572 0.648769 38.398239 3.799208 -0.694477 5.703260 -11.811811 25.067642 -13.098747 3.897908 22.426497 -5.028996 -14.030362 10.647234 -57.554310 -31.262424 27.997118 -62.773624 0.773713 -23.497629 15.641169 -36.982830 -5.231603 17.363308 9.091059 21.165291 70.399033 55.537189 60.880154 21.696655 -0.962214 -45.667946 -26.498354 50.566319 -12.175460 -23.452942 19.273279 6.569572 25.443304 1.235072 4.534606 9.625940 -0.760433 -13.710803 -11.170879 -15.476609 -6.050968 54.075939 6.382706 -23.664852 -25.715683 -4.357186 14.733082 
28.166298 42.863724 36.035641 -6.167172 -6.039326 -50.276924 -23.081680 -3.434572 0.648769 38.258320 3.688791 -0.657802 5.408067 -11.494793 24.976007 -12.138478 3.708957 22.390539 -5.094604 -14.010808 10.736186 -57.327061 -31.854803 27.311768 -63.136562 0.828738 -23.352007 15.115954 -36.703136 -4.996480 17.427956 9.224476 21.239328 69.709167 56.068108 59.944302 22.122084 -1.372111 -45.321953 -26.388796 50.381676 -12.065834 -23.662081 19.140625 6.470740 25.757868 1.177454 4.747068 9.250739 -0.724536 -13.668984 -11.012922 -15.698001 -6.575428 53.679695 6.072993 -23.183918 -25.660076 -4.362479 14.797663 
28.142658 42.919868 36.163837 -5.948416 -5.789187 -50.384293 -23.081680 -3.434572 0.648769 38.122139 3.671708 -0.595919 5.661102 -11.756411 25.100391 -12.716775 3.861418 22.465652 -5.303658 -13.947504 10.892708 -57.282883 -32.452915 26.583271 -63.457073 0.809939 -23.018122 15.277696 -36.427437 -5.026383 17.332664 9.307730 21.226130 68.439911 56.169659 58.553772 23.417946 -1.750584 -44.370899 -26.690990 49.961716 -12.101600 -23.932486 19.098642 6.086153 26.059866 0.956176 5.207116 8.909410 -0.693613 -13.596010 -10.946595 -15.848138 -7.028461 53.276051 5.778228 -22.768864 -25.566319 -4.388214 14.859652 
28.109909 42.961365 36.317173 -5.937685 -5.701870 -50.482216 -23.081680 -3.434572 0.648769 38.194798 3.541360 -0.656521 5.554270 -11.833382 25.089277 -12.962669 4.044633 22.383024 -5.426876 -13.909281 10.958487 -57.198368 -32.764393 25.812218 -63.966251 0.713731 -22.208200 15.758153 -35.970013 -5.140194 17.160612 9.210766 21.164927 68.003899 56.309498 57.987164 24.090801 -2.074696 -43.716160 -26.910717 49.976910 -12.217847 -23.910418 18.891212 5.952435 26.420910 0.975604 5.453161 8.495739 -0.621735 -13.616014 -10.555253 -16.090528 -7.659796 52.883484 5.366795 -22.231283 -25.518435 -4.398714 14.942852 
28.060844 42.999611 36.457287 -5.927471 -5.663118 -50.458866 -23.081680 -3.434572 0.648769 38.169853 3.549851 -0.918184 5.961535 -11.910949 25.068880 -13.726639 4.087759 22.392481 -5.477844 -14.010130 11.238976 -56.998703 -33.041176 24.849842 -64.423294 0.716750 -21.260538 16.065437 -35.448326 -5.186350 17.187468 9.217680 21.589731 67.414627 56.733864 57.145653 24.689428 -2.494326 -43.333813 -26.241083 49.862499 -11.860273 -23.914322 18.660553 5.851155 26.732061 1.141791 5.587092 8.108257 -0.576422 -13.702878 -10.028268 -16.276630 -8.521585 52.428650 4.920294 -21.627750 -25.502192 -4.409158 15.004679 
28.036598 43.048431 36.588127 -5.818844 -5.596201 -50.593536 -23.081680 -3.434572 0.648769 38.274288 3.493572 -0.979887 5.509495 -11.935415 25.202911 -13.855235 4.251794 22.423941 -5.346779 -14.069417 11.351112 -56.782417 -33.501049 24.486332 -64.852943 0.558024 -20.863031 16.625370 -34.960125 -5.311681 17.062313 8.891918 21.724176 67.340508 56.818867 56.690960 25.449217 -2.921674 -42.624931 -26.252325 49.612320 -11.801632 -23.893974 18.523062 5.863627 26.938549 1.249056 5.741140 7.790751 -0.528328 -13.714266 -9.686955 -16.414120 -9.076764 51.959267 4.607461 -21.092415 -25.403564 -4.411633 15.013215 
28.026913 43.092373 36.716240 -5.719779 -5.499994 -50.778755 -23.081680 -3.434572 0.648769 38.339581 3.356895 -0.938559 5.370567 -11.906075 25.375486 -13.904117 4.241688 22.587410 -5.374067 -14.158698 11.422716 -56.494484 -33.730488 24.163034 -65.450203 0.397989 -20.963034 16.820539 -34.528542 -5.319249 16.838236 8.602566 21.481678 67.671753 56.818085 56.745720 25.662731 -3.129002 -42.002300 -26.763905 49.679043 -12.064499 -23.900690 18.354271 6.160444 27.147299 1.527526 5.709820 7.473406 -0.464374 -13.771329 -9.462121 -16.657282 -9.425096 51.567436 4.518925 -20.567648 -25.330359 -4.385612 14.961140 
28.009665 43.142818 36.827793 -5.582160 -5.472132 -51.029072 -23.081680 -3.434572 0.648769 38.335178 3.248925 -0.999545 5.652108 -12.028686 25.487873 -14.295296 4.180195 22.731371 -5.408154 -14.377241 11.383924 -56.028534 -33.904152 23.651627 -65.846062 0.380688 -21.147182 16.413462 -34.003334 -5.106347 16.941528 8.347214 21.608734 67.560287 57.025654 56.195854 26.011488 -3.426647 -41.527531 -26.696442 49.606113 -12.013295 -23.793039 18.383230 6.459504 27.246641 1.649460 5.685935 7.216851 -0.427011 -13.772451 -9.167108 -16.759546 -9.938931 51.069885 4.314229 -19.970230 -25.235443 -4.351066 14.833948 
27.994896 43.188793 36.940609 -5.493960 -5.482666 -51.222073 -23.081680 -3.434572 0.648769 38.489567 3.170090 -0.992455 5.934214 -12.140092 25.590561 -14.814233 4.175581 22.859676 -5.395637 -14.418770 11.324438 -55.723579 -34.396240 23.380039 -66.008377 0.391262 -21.363726 16.260084 -33.627922 -5.002134 17.020039 8.201604 21.766754 67.091293 57.240253 55.321915 26.590790 -3.676263 -40.905071 -27.044363 49.260876 -12.087061 -23.671495 18.359034 6.379207 27.373444 1.678838 5.962224 6.967763 -0.385892 -13.802372 -8.787221 -16.888103 -10.589313 50.570702 4.059878 -19.276007 -25.135624 -4.290772 14.746964 
27.990665 43.239239 37.082764 -5.405758 -5.493189 -51.454163 -23.081680 -3.434572 0.648769 38.556606 3.166303 -1.052445 5.768856 -12.723480 25.538162 -15.102798 4.627946 22.553856 -5.435756 -14.401189 11.490685 -55.647560 -34.861671 22.789946 -66.321541 0.397225 -21.157774 16.355705 -33.023602 -4.948301 17.070992 8.109625 21.972086 66.648544 57.621040 54.545544 27.020733 -3.860788 -40.408821 -27.330141 49.014187 -12.160378 -23.552103 18.259314 6.453344 27.568754 1.810975 6.162888 6.654013 -0.343523 -13.824740 -8.328614 -17.133032 -11.374878 50.003727 3.805789 -18.380373 -25.024485 -4.240907 14.583994 
27.995668 43.290501 37.205223 -5.248536 -5.465410 -51.725697 -23.081680 -3.434572 0.648769 38.652271 3.044689 -0.998693 5.494545 -13.031518 25.573288 -15.422936 5.185657 22.333683 -5.509829 -14.348882 11.736829 -55.508949 -35.484146 22.152107 -66.681900 0.388070 -21.182478 16.032688 -32.369446 -4.753333 16.829626 8.174130 21.795355 66.259621 57.666111 54.035133 27.701378 -4.111867 -39.952816 -27.406944 48.713600 -12.110725 -23.504990 18.260893 6.419225 27.716721 1.825312 6.454990 6.394150 -0.313287 -13.827740 -8.017575 -17.342150 -12.209295 49.465660 3.512696 -17.438066 -24.906052 -4.185893 14.391090 
